<svg width="32" height="33" viewBox="0 0 32 33" fill="none" xmlns="http://www.w3.org/2000/svg">
<g clip-path="url(#clip0_46_40)">
<path d="M16 32.045C24.8366 32.045 32 24.8816 32 16.045C32 7.20849 24.8366 0.0450439 16 0.0450439C7.16344 0.0450439 0 7.20849 0 16.045C0 24.8816 7.16344 32.045 16 32.045Z" fill="#2775C9"/>
<path d="M15.75 27.545C9.26 27.545 4 22.285 4 15.795C4 9.30504 9.26 4.04504 15.75 4.04504C22.24 4.04504 27.5 9.30504 27.5 15.795C27.5 18.9113 26.2621 21.9 24.0585 24.1035C21.855 26.3071 18.8663 27.545 15.75 27.545ZM15.05 11.435C14.4071 11.4669 13.7994 11.738 13.3461 12.195C12.8928 12.652 12.6267 13.2619 12.6 13.905C12.6 15.115 13.34 15.905 14.91 16.235L16.01 16.495C17.08 16.745 17.52 17.105 17.52 17.715C17.52 18.325 16.75 18.925 15.75 18.925C15.3948 18.9576 15.0376 18.8895 14.7193 18.7286C14.401 18.5677 14.1344 18.3204 13.95 18.015C13.8954 17.8992 13.8091 17.8011 13.7012 17.7321C13.5933 17.6631 13.4681 17.626 13.34 17.625H12.75C12.7046 17.6334 12.6614 17.6507 12.6227 17.6759C12.584 17.7011 12.5507 17.7337 12.5247 17.7718C12.4987 17.8099 12.4805 17.8528 12.4711 17.898C12.4617 17.9431 12.4613 17.9897 12.47 18.035C12.6137 18.6216 12.9479 19.1439 13.4201 19.5203C13.8924 19.8967 14.4762 20.1058 15.08 20.115V20.955C15.08 21.142 15.1543 21.3213 15.2865 21.4536C15.4187 21.5858 15.598 21.66 15.785 21.66C15.972 21.66 16.1513 21.5858 16.2835 21.4536C16.4157 21.3213 16.49 21.142 16.49 20.955V20.105C17.1728 20.0973 17.8256 19.8233 18.3093 19.3414C18.7931 18.8595 19.0696 18.2078 19.08 17.525C19.08 16.255 18.35 15.525 16.62 15.155L15.62 14.935C14.62 14.685 14.15 14.355 14.15 13.795C14.15 13.235 14.75 12.615 15.75 12.615C16.0649 12.5821 16.3827 12.6411 16.6648 12.7849C16.947 12.9286 17.1815 13.1509 17.34 13.425C17.4043 13.5619 17.506 13.6778 17.6334 13.7592C17.7609 13.8406 17.9088 13.8843 18.06 13.885H18.53C18.6369 13.8589 18.7292 13.7919 18.7872 13.6984C18.8451 13.6049 18.8641 13.4924 18.84 13.385C18.7045 12.8435 18.4015 12.3585 17.9741 11.9994C17.5467 11.6402 17.0168 11.4252 16.46 11.385V10.695C16.46 10.5081 16.3857 10.3287 16.2535 10.1965C16.1213 10.0643 15.942 9.99004 15.755 9.99004C15.568 9.99004 15.3887 10.0643 15.2565 10.1965C15.1243 10.3287 15.05 10.5081 15.05 10.695V11.435ZM6.94 15.795C6.94115 17.6371 7.52097 19.4323 8.59759 20.927C9.6742 22.4217 11.1932 23.5404 12.94 24.125H13.08C13.1993 24.125 13.3138 24.0776 13.3982 23.9932C13.4826 23.9089 13.53 23.7944 13.53 23.675V23.465C13.5303 23.2789 13.4754 23.0968 13.3721 22.942C13.2689 22.7871 13.122 22.6663 12.95 22.595C11.5896 22.0459 10.4243 21.1028 9.60378 19.8867C8.78323 18.6706 8.34481 17.2371 8.34481 15.77C8.34481 14.303 8.78323 12.8694 9.60378 11.6534C10.4243 10.4373 11.5896 9.49415 12.95 8.94504C13.1212 8.87552 13.2677 8.75659 13.371 8.60342C13.4743 8.45025 13.5297 8.26979 13.53 8.08504V7.85504C13.5306 7.78751 13.515 7.72082 13.4844 7.66063C13.4538 7.60043 13.4091 7.5485 13.3541 7.50925C13.2992 7.47 13.2356 7.44457 13.1687 7.43514C13.1018 7.4257 13.0337 7.43253 12.97 7.45504C11.216 8.03514 9.6893 9.15315 8.60683 10.6503C7.52437 12.1474 6.94115 13.9476 6.94 15.795ZM24.56 15.795C24.5568 13.9547 23.976 12.1618 22.8995 10.6691C21.823 9.17636 20.3052 8.05918 18.56 7.47504H18.41C18.2853 7.47504 18.1658 7.52456 18.0777 7.6127C17.9895 7.70085 17.94 7.82039 17.94 7.94504V8.09504C17.944 8.28791 18.0038 8.4755 18.112 8.63519C18.2202 8.79488 18.3723 8.91985 18.55 8.99504C19.9073 9.54576 21.0694 10.4889 21.8876 11.7039C22.7058 12.9188 23.1428 14.3503 23.1428 15.815C23.1428 17.2798 22.7058 18.7113 21.8876 19.9262C21.0694 21.1411 19.9073 22.0843 18.55 22.635C18.3757 22.711 18.2267 22.8351 18.1205 22.9927C18.0142 23.1504 17.9551 23.335 17.95 23.525V23.695C17.9509 23.7692 17.9692 23.8421 18.0036 23.9077C18.038 23.9734 18.0875 24.03 18.148 24.0729C18.2084 24.1158 18.2782 24.1438 18.3515 24.1546C18.4249 24.1654 18.4997 24.1587 18.57 24.135C20.3166 23.5481 21.8345 22.4272 22.9094 20.9306C23.9843 19.4341 24.5617 17.6376 24.56 15.795Z" fill="white"/>
</g>
<defs>
<clipPath id="clip0_46_40">
<rect width="32" height="32" fill="white" transform="translate(0 0.0450439)"/>
</clipPath>
</defs>
</svg>
