<svg width="32" height="33" viewBox="0 0 32 33" fill="none" xmlns="http://www.w3.org/2000/svg">
<g clip-path="url(#clip0_46_45)">
<path d="M16 32.045C24.8366 32.045 32 24.8816 32 16.045C32 7.20849 24.8366 0.0450439 16 0.0450439C7.16344 0.0450439 0 7.20849 0 16.045C0 24.8816 7.16344 32.045 16 32.045Z" fill="#26A17B"/>
<path fill-rule="evenodd" clip-rule="evenodd" d="M17.9218 17.428V17.426C17.8118 17.434 17.2448 17.468 15.9798 17.468C14.9698 17.468 14.2588 17.438 14.0088 17.426V17.429C10.1208 17.258 7.2188 16.581 7.2188 15.771C7.2188 14.962 10.1208 14.285 14.0088 14.111V16.755C14.2628 16.773 14.9908 16.816 15.9968 16.816C17.2038 16.816 17.8088 16.766 17.9218 16.756V14.113C21.8018 14.286 24.6968 14.963 24.6968 15.771C24.6968 16.581 21.8018 17.256 17.9218 17.428ZM17.9218 13.838V11.472H23.3358V7.86401H8.5948V11.472H14.0088V13.837C9.6088 14.039 6.2998 14.911 6.2998 15.955C6.2998 16.999 9.6088 17.87 14.0088 18.073V25.655H17.9218V18.071C22.3148 17.869 25.6158 16.998 25.6158 15.955C25.6158 14.912 22.3148 14.041 17.9218 13.838Z" fill="white"/>
</g>
<defs>
<clipPath id="clip0_46_45">
<rect width="32" height="32" fill="white" transform="translate(0 0.0450439)"/>
</clipPath>
</defs>
</svg>
